<?xml version="1.0" encoding="UTF-8"?><svg id="Layer_2" xmlns="http://www.w3.org/2000/svg" viewBox="0 0 371.16 333.66"><g id="Layer_1-2"><path d="M104.05,9.03c8.16.97,17.84,6.75,22.75,13.33l51.37,92.95,39.08-71.09c14.87-21.46,35.51-26.22,60.73-24.59,4.53-29.44,48.22-24.52,43.92,6.38-2.51,18.02-24.02,22.38-36.99,11.81-1.37-1.12-2.99-4.28-3.59-4.43-2.58-.63-14.99-.28-18.36-.02-13.72,1.07-27.44,8.01-34.75,19.86-17.87,28.99-32.15,62.11-50.14,91.25-14.4,18.82-41.94,15.92-56-1.62L48.96,9.03h55.09Z" style="fill:#ff385c;"/><path d="M293.71,52.93c.51.68-3.9,8.85-4.71,10.39-18.77,35.88-41.31,77.84-62.41,112.14-11.88,19.31-31.82,29.34-54.62,24.05-19.85-4.6-29.5-18.25-38.19-35.43,12.34,5.44,22.12,6.39,34.79,1.14,9.35-3.87,15.6-10.62,20.98-19,16.93-26.38,29.6-58.75,46.81-84.83,14.47-21.92,36.51-19.92,57.34-8.47Z" style="fill:#ff385c;"/><path d="M23.39,319.96L0,255.1h14.34l17.27,49.24,17.27-49.24h14.34l-23.48,64.86h-16.35Z"/><path d="M89.8,321.06c-4.99,0-9.35-1.05-13.06-3.15-3.72-2.1-6.61-5.07-8.68-8.91-2.07-3.84-3.11-8.34-3.11-13.52s1.04-9.67,3.11-13.47c2.07-3.81,4.96-6.77,8.68-8.91,3.71-2.13,8.07-3.2,13.06-3.2s9.35,1.07,13.06,3.2c3.71,2.13,6.61,5.1,8.68,8.91,2.07,3.81,3.11,8.3,3.11,13.47s-1.04,9.68-3.11,13.52c-2.07,3.84-4.96,6.81-8.68,8.91-3.72,2.1-8.07,3.15-13.06,3.15ZM89.8,310.55c3.41,0,6.06-1.32,7.95-3.97,1.89-2.65,2.83-6.35,2.83-11.1s-.94-8.45-2.83-11.1c-1.89-2.65-4.54-3.97-7.95-3.97s-6.06,1.32-7.95,3.97c-1.89,2.65-2.83,6.35-2.83,11.1s.94,8.45,2.83,11.1c1.89,2.65,4.54,3.97,7.95,3.97Z"/><path d="M126.8,333.66v-10.23h6.49c1.58,0,2.75-.23,3.52-.69.76-.46,1.35-1.26,1.78-2.42l1-2.83h-3.75l-17.17-46.5h13.98l11.24,33.71,10.51-33.71h13.98l-18.82,53.62c-1.1,3.23-2.68,5.54-4.75,6.94-2.07,1.4-4.96,2.1-8.68,2.1h-9.32Z"/><path d="M189.55,321.06c-5.06,0-9.18-1.17-12.38-3.52-3.2-2.34-4.8-5.62-4.8-9.82s1.35-7.66,4.07-10c2.71-2.34,6.71-4.06,12.01-5.16l15.8-3.11c0-3.17-.72-5.56-2.15-7.17-1.43-1.61-3.49-2.42-6.17-2.42s-4.66.59-6.12,1.78-2.41,2.94-2.83,5.25l-13.79-.64c.91-5.36,3.33-9.42,7.26-12.2,3.93-2.77,9.09-4.16,15.48-4.16,7.31,0,12.8,1.74,16.49,5.21,3.68,3.47,5.53,8.56,5.53,15.26v16.72c0,1.4.23,2.33.69,2.79.46.46,1.14.69,2.05.69h1.37v9.41c-.43.12-1.11.24-2.06.37-.95.12-1.87.18-2.79.18-1.95,0-3.76-.33-5.44-1-1.68-.67-3.03-1.81-4.07-3.43-1.04-1.61-1.55-3.91-1.55-6.9l1.19.91c-.61,2.19-1.69,4.11-3.24,5.76-1.55,1.64-3.56,2.92-6.03,3.84-2.47.91-5.31,1.37-8.54,1.37ZM192.84,311.65c2.25,0,4.23-.44,5.94-1.33,1.7-.88,3.04-2.18,4.02-3.88.97-1.71,1.46-3.71,1.46-6.03v-2.38l-11.15,2.38c-2.19.43-3.85,1.14-4.98,2.15s-1.69,2.3-1.69,3.88.55,2.92,1.64,3.84c1.1.91,2.68,1.37,4.75,1.37Z"/><path d="M230.66,319.96v-48.96h12.97l.46,14.25-1-.27c.79-4.93,2.19-8.5,4.2-10.69s4.78-3.29,8.31-3.29h4.48v11.33h-4.48c-2.56,0-4.66.34-6.3,1-1.64.67-2.88,1.74-3.7,3.2s-1.23,3.44-1.23,5.94v27.5h-13.7Z"/><path d="M289.4,321.06c-4.99,0-9.35-1.05-13.06-3.15-3.71-2.1-6.61-5.07-8.68-8.91-2.07-3.84-3.11-8.34-3.11-13.52s1.04-9.67,3.11-13.47c2.07-3.81,4.96-6.77,8.68-8.91,3.71-2.13,8.07-3.2,13.06-3.2s9.35,1.07,13.06,3.2c3.71,2.13,6.61,5.1,8.68,8.91,2.07,3.81,3.11,8.3,3.11,13.47s-1.04,9.68-3.11,13.52c-2.07,3.84-4.96,6.81-8.68,8.91-3.72,2.1-8.07,3.15-13.06,3.15ZM289.4,310.55c3.41,0,6.06-1.32,7.95-3.97,1.89-2.65,2.83-6.35,2.83-11.1s-.95-8.45-2.83-11.1c-1.89-2.65-4.54-3.97-7.95-3.97s-6.06,1.32-7.95,3.97c-1.89,2.65-2.83,6.35-2.83,11.1s.94,8.45,2.83,11.1c1.89,2.65,4.54,3.97,7.95,3.97Z"/><path d="M346.31,321.06c-4.99,0-9.35-1.05-13.06-3.15-3.71-2.1-6.61-5.07-8.68-8.91-2.07-3.84-3.11-8.34-3.11-13.52s1.04-9.67,3.11-13.47c2.07-3.81,4.96-6.77,8.68-8.91,3.71-2.13,8.07-3.2,13.06-3.2s9.35,1.07,13.06,3.2c3.71,2.13,6.61,5.1,8.68,8.91,2.07,3.81,3.11,8.3,3.11,13.47s-1.04,9.68-3.11,13.52c-2.07,3.84-4.96,6.81-8.68,8.91-3.72,2.1-8.07,3.15-13.06,3.15ZM346.31,310.55c3.41,0,6.06-1.32,7.95-3.97,1.89-2.65,2.83-6.35,2.83-11.1s-.95-8.45-2.83-11.1c-1.89-2.65-4.54-3.97-7.95-3.97s-6.06,1.32-7.95,3.97c-1.89,2.65-2.83,6.35-2.83,11.1s.94,8.45,2.83,11.1c1.89,2.65,4.54,3.97,7.95,3.97Z"/></g></svg>
