<?xml version="1.0" encoding="UTF-8"?><svg id="Layer_2" xmlns="http://www.w3.org/2000/svg" viewBox="0 0 273.24 200.91"><g id="Layer_1-2"><path d="M55.09,9.03c8.16.97,17.84,6.75,22.75,13.33l51.37,92.95,39.08-71.09c14.87-21.46,35.51-26.22,60.73-24.59,4.53-29.44,48.22-24.52,43.92,6.38-2.51,18.02-24.02,22.38-36.99,11.81-1.37-1.12-2.99-4.28-3.59-4.43-2.58-.63-14.99-.28-18.36-.02-13.72,1.07-27.44,8.01-34.75,19.86-17.87,28.99-32.15,62.11-50.14,91.25-14.4,18.82-41.94,15.92-56-1.62L0,9.03h55.09Z" style="fill:#ff385c;"/><path d="M244.75,52.93c.51.68-3.9,8.85-4.71,10.39-18.77,35.88-41.31,77.84-62.41,112.14-11.88,19.31-31.82,29.34-54.62,24.05-19.85-4.6-29.5-18.25-38.19-35.43,12.34,5.44,22.12,6.39,34.79,1.14,9.35-3.87,15.6-10.62,20.98-19,16.93-26.38,29.6-58.75,46.81-84.83,14.47-21.92,36.51-19.92,57.34-8.47Z" style="fill:#ff385c;"/></g></svg>
