<?xml version="1.0" encoding="UTF-8"?><svg id="Layer_2" xmlns="http://www.w3.org/2000/svg" viewBox="0 0 620.67 142.92"><g id="Layer_1-2"><path d="M39.19,6.43c5.8.69,12.69,4.8,16.18,9.48l36.54,66.12,27.8-50.57c10.58-15.27,25.26-18.65,43.2-17.49,3.22-20.94,34.3-17.44,31.24,4.54-1.78,12.82-17.08,15.92-26.31,8.4-.97-.79-2.13-3.05-2.56-3.15-1.84-.45-10.66-.2-13.06-.01-9.76.76-19.52,5.7-24.72,14.13-12.71,20.62-22.87,44.18-35.67,64.91-10.24,13.39-29.83,11.33-39.84-1.15L0,6.43h39.19Z" style="fill:#ff385c;"/><path d="M174.11,37.65c.36.48-2.77,6.3-3.35,7.39-13.36,25.52-29.39,55.38-44.39,79.77-8.45,13.74-22.64,20.87-38.85,17.11-14.12-3.27-20.99-12.98-27.16-25.2,8.78,3.87,15.74,4.55,24.75.81,6.65-2.76,11.1-7.56,14.92-13.52,12.04-18.76,21.05-41.79,33.3-60.35,10.29-15.59,25.97-14.17,40.79-6.02Z" style="fill:#ff385c;"/><path d="M208.14,124.44c-7.32,0-13.71-1.54-19.15-4.62-5.45-3.08-9.69-7.43-12.72-13.06s-4.55-12.23-4.55-19.82,1.52-14.17,4.55-19.76c3.04-5.58,7.28-9.93,12.72-13.06,5.45-3.12,11.83-4.69,19.15-4.69s13.71,1.56,19.15,4.69c5.45,3.13,9.69,7.48,12.72,13.06,3.03,5.58,4.55,12.17,4.55,19.76s-1.52,14.2-4.55,19.82c-3.04,5.63-7.28,9.98-12.72,13.06-5.45,3.08-11.83,4.62-19.15,4.62ZM208.14,109.04c5,0,8.88-1.94,11.65-5.83,2.77-3.88,4.15-9.31,4.15-16.27s-1.39-12.39-4.15-16.27c-2.77-3.88-6.65-5.83-11.65-5.83s-8.89,1.94-11.65,5.83-4.15,9.31-4.15,16.27,1.38,12.39,4.15,16.27,6.65,5.83,11.65,5.83Z"/><path d="M262.38,142.92v-15h9.51c2.32,0,4.04-.34,5.16-1.01,1.12-.67,1.99-1.85,2.61-3.55l1.47-4.15h-5.49l-25.18-68.17h20.49l16.47,49.42,15.4-49.42h20.49l-27.59,78.62c-1.61,4.73-3.93,8.12-6.96,10.18-3.04,2.05-7.28,3.08-12.72,3.08h-13.66Z"/><path d="M354.4,124.44c-7.41,0-13.46-1.72-18.15-5.16-4.69-3.44-7.03-8.24-7.03-14.4s1.99-11.23,5.96-14.67c3.97-3.44,9.84-5.96,17.61-7.57l23.17-4.55c0-4.64-1.05-8.15-3.15-10.52-2.1-2.36-5.11-3.55-9.04-3.55s-6.83.87-8.97,2.61c-2.14,1.74-3.53,4.31-4.15,7.7l-20.22-.94c1.34-7.86,4.89-13.82,10.65-17.88,5.76-4.06,13.33-6.1,22.7-6.1,10.71,0,18.77,2.55,24.18,7.63,5.4,5.09,8.1,12.55,8.1,22.37v24.51c0,2.06.34,3.42,1,4.09s1.68,1.01,3.01,1.01h2.01v13.8c-.63.18-1.63.36-3.01.54-1.39.18-2.75.27-4.09.27-2.86,0-5.52-.49-7.97-1.47-2.46-.98-4.44-2.66-5.96-5.02-1.52-2.36-2.28-5.74-2.28-10.11l1.74,1.34c-.89,3.21-2.48,6.03-4.76,8.44-2.28,2.41-5.22,4.29-8.84,5.62-3.62,1.34-7.79,2.01-12.52,2.01ZM359.22,110.64c3.3,0,6.2-.65,8.71-1.94,2.5-1.29,4.46-3.19,5.89-5.69,1.43-2.5,2.14-5.45,2.14-8.84v-3.48l-16.34,3.48c-3.21.63-5.65,1.67-7.3,3.15-1.65,1.47-2.48,3.37-2.48,5.69s.8,4.29,2.41,5.62c1.61,1.34,3.93,2.01,6.97,2.01Z"/><path d="M414.67,122.83V51.04h19.02l.67,20.89-1.47-.4c1.16-7.23,3.22-12.46,6.16-15.67s7.01-4.82,12.19-4.82h6.56v16.61h-6.56c-3.75,0-6.83.49-9.24,1.47-2.41.98-4.22,2.54-5.43,4.69s-1.81,5.05-1.81,8.71v40.32h-20.09Z"/><path d="M500.8,124.44c-7.32,0-13.71-1.54-19.15-4.62-5.45-3.08-9.69-7.43-12.72-13.06-3.04-5.63-4.55-12.23-4.55-19.82s1.52-14.17,4.55-19.76c3.03-5.58,7.28-9.93,12.72-13.06,5.45-3.12,11.83-4.69,19.15-4.69s13.71,1.56,19.15,4.69c5.45,3.13,9.69,7.48,12.72,13.06,3.03,5.58,4.55,12.17,4.55,19.76s-1.52,14.2-4.55,19.82c-3.04,5.63-7.28,9.98-12.72,13.06-5.45,3.08-11.83,4.62-19.15,4.62ZM500.8,109.04c5,0,8.88-1.94,11.65-5.83,2.77-3.88,4.15-9.31,4.15-16.27s-1.39-12.39-4.15-16.27c-2.77-3.88-6.65-5.83-11.65-5.83s-8.89,1.94-11.65,5.83c-2.77,3.88-4.15,9.31-4.15,16.27s1.38,12.39,4.15,16.27c2.77,3.88,6.65,5.83,11.65,5.83Z"/><path d="M584.24,124.44c-7.32,0-13.71-1.54-19.15-4.62-5.45-3.08-9.69-7.43-12.72-13.06-3.04-5.63-4.55-12.23-4.55-19.82s1.52-14.17,4.55-19.76c3.03-5.58,7.28-9.93,12.72-13.06,5.45-3.12,11.83-4.69,19.15-4.69s13.71,1.56,19.15,4.69c5.45,3.13,9.69,7.48,12.72,13.06,3.03,5.58,4.55,12.17,4.55,19.76s-1.52,14.2-4.55,19.82c-3.04,5.63-7.28,9.98-12.72,13.06-5.45,3.08-11.83,4.62-19.15,4.62ZM584.24,109.04c5,0,8.88-1.94,11.65-5.83,2.77-3.88,4.15-9.31,4.15-16.27s-1.39-12.39-4.15-16.27c-2.77-3.88-6.65-5.83-11.65-5.83s-8.89,1.94-11.65,5.83c-2.77,3.88-4.15,9.31-4.15,16.27s1.38,12.39,4.15,16.27c2.77,3.88,6.65,5.83,11.65,5.83Z"/></g></svg>
